<svg xmlns="http://www.w3.org/2000/svg" width="1600" height="880" viewBox="0 0 1600 880" role="img" aria-label="IA aplicada à liderança e maturidade de UX">
  <defs>
    <pattern id="h" width="28" height="28" patternUnits="userSpaceOnUse" patternTransform="rotate(135)"><rect width="28" height="28" fill="none"></rect><line x1="0" y1="0" x2="0" y2="28" stroke="rgba(255,255,255,0.02)" stroke-width="14"></line></pattern>
    <linearGradient id="g" x1="0" y1="0" x2="0" y2="1"><stop offset="0" stop-color="#101015"></stop><stop offset="1" stop-color="#0B0B0E"></stop></linearGradient>
    <filter id="blur" x="-20%" y="-20%" width="140%" height="140%"><feGaussianBlur stdDeviation="6"></feGaussianBlur></filter>
  </defs>
  <rect width="1600" height="880" fill="url(#g)"></rect><rect width="1600" height="880" fill="url(#h)"></rect>
  <rect x="1" y="1" width="1598" height="878" fill="none" stroke="rgba(255,255,255,0.12)" stroke-width="2"></rect>
  <g transform="translate(56,46)"><rect width="232" height="42" rx="21" fill="none" stroke="#52C2E8" stroke-opacity="0.5" stroke-width="1.5"></rect><circle cx="26" cy="21" r="4.5" fill="#52C2E8"></circle><text x="44" y="28" font-family="system-ui,Segoe UI,Arial,sans-serif" font-size="16" letter-spacing="2.4" font-weight="600" fill="#52C2E8">ASSET CONCEITUAL</text></g>
  <text x="1544" y="74" text-anchor="end" font-family="system-ui,Segoe UI,Arial,sans-serif" font-size="15" letter-spacing="2.2" font-weight="600" fill="#7C7C86">ANONIMIZADO · RECRIADO</text>
  <text x="64" y="160" font-family="system-ui,Segoe UI,Arial,sans-serif" font-size="14" letter-spacing="2.2" font-weight="700" fill="#52C2E8">IA COMO CAMADA DE APOIO À LEITURA E À DECISÃO</text>
  <text x="64" y="208" font-family="&#39;Space Grotesk&#39;,system-ui,Segoe UI,Arial,sans-serif" font-size="33" font-weight="600" letter-spacing="-0.6" fill="#F4F4F6">Sinais dispersos, transformados em direcionamento de liderança</text>
  <rect x="64" y="250" width="442" height="540" rx="18" fill="rgba(255,255,255,0.018)" stroke="rgba(255,255,255,0.08)"></rect><text x="102" y="308" font-family="system-ui,Segoe UI,Arial,sans-serif" font-size="13" letter-spacing="2.4" font-weight="700" fill="#52C2E8">ETAPA 01</text><text x="102" y="350" font-family="&#39;Space Grotesk&#39;,system-ui,Segoe UI,Arial,sans-serif" font-size="27" font-weight="600" letter-spacing="-0.6" fill="#F4F4F6">Fontes de informação</text><line x1="102" y1="378" x2="468" y2="378" stroke="rgba(255,255,255,0.08)"></line><circle cx="114" cy="411" r="5" fill="none" stroke="#52C2E8" stroke-width="2"></circle><text x="140" y="418" font-family="system-ui,Segoe UI,Arial,sans-serif" font-size="20" font-weight="500" fill="#A2A2AC">Jira</text><circle cx="114" cy="463" r="5" fill="none" stroke="#52C2E8" stroke-width="2"></circle><text x="140" y="470" font-family="system-ui,Segoe UI,Arial,sans-serif" font-size="20" font-weight="500" fill="#A2A2AC">Rovo</text><circle cx="114" cy="515" r="5" fill="none" stroke="#52C2E8" stroke-width="2"></circle><text x="140" y="522" font-family="system-ui,Segoe UI,Arial,sans-serif" font-size="20" font-weight="500" fill="#A2A2AC">Dashboards</text><circle cx="114" cy="567" r="5" fill="none" stroke="#52C2E8" stroke-width="2"></circle><text x="140" y="574" font-family="system-ui,Segoe UI,Arial,sans-serif" font-size="20" font-weight="500" fill="#A2A2AC">Feedbacks</text><circle cx="114" cy="619" r="5" fill="none" stroke="#52C2E8" stroke-width="2"></circle><text x="140" y="626" font-family="system-ui,Segoe UI,Arial,sans-serif" font-size="20" font-weight="500" fill="#A2A2AC">Design Reviews</text><circle cx="114" cy="671" r="5" fill="none" stroke="#52C2E8" stroke-width="2"></circle><text x="140" y="678" font-family="system-ui,Segoe UI,Arial,sans-serif" font-size="20" font-weight="500" fill="#A2A2AC">1:1s</text><rect x="578" y="250" width="442" height="540" rx="18" fill="rgba(82,194,232,0.045)" stroke="rgba(82,194,232,0.38)"></rect><g filter="url(#blur)" opacity="0.55"><rect x="600" y="280" width="398" height="482" rx="14" fill="rgba(82,194,232,0.04)"></rect><rect x="622" y="308" width="166" height="54" rx="10" fill="#52C2E8" opacity="0.42"></rect><rect x="810" y="308" width="166" height="54" rx="10" fill="#9884FF" opacity="0.38"></rect><rect x="622" y="398" width="318.6" height="13" rx="6.5" fill="#52C2E8" opacity="0.5"></rect><rect x="622" y="442" width="194.70000000000002" height="13" rx="6.5" fill="#52C2E8" opacity="0.5"></rect><rect x="622" y="486" width="265.5" height="13" rx="6.5" fill="#52C2E8" opacity="0.5"></rect><rect x="622" y="530" width="141.6" height="13" rx="6.5" fill="#52C2E8" opacity="0.5"></rect><rect x="622" y="574" width="300.9" height="13" rx="6.5" fill="#52C2E8" opacity="0.5"></rect><rect x="622" y="618" width="212.4" height="13" rx="6.5" fill="#52C2E8" opacity="0.5"></rect><rect x="622" y="662" width="177" height="13" rx="6.5" fill="#52C2E8" opacity="0.5"></rect><rect x="622" y="706" width="247.79999999999998" height="13" rx="6.5" fill="#52C2E8" opacity="0.5"></rect></g><text x="616" y="308" font-family="system-ui,Segoe UI,Arial,sans-serif" font-size="13" letter-spacing="2.4" font-weight="700" fill="#52C2E8">ETAPA 02</text><g transform="translate(982,296)"><rect x="-152" y="0" width="152" height="30" rx="15" fill="none" stroke="#52C2E8" stroke-opacity="0.4"></rect><text x="-76" y="20" text-anchor="middle" font-family="system-ui,Segoe UI,Arial,sans-serif" font-size="11.5" letter-spacing="1.8" font-weight="600" fill="#52C2E8">CLAUDE · ROVO</text></g><text x="616" y="350" font-family="&#39;Space Grotesk&#39;,system-ui,Segoe UI,Arial,sans-serif" font-size="27" font-weight="600" letter-spacing="-0.6" fill="#F4F4F6">Análises com IA</text><line x1="616" y1="378" x2="982" y2="378" stroke="rgba(255,255,255,0.08)"></line><g transform="translate(628,411)" stroke="#52C2E8" stroke-width="2.2" fill="none" stroke-linecap="round"><path d="M0,-7 L0,7 M-7,0 L7,0 M-4.5,-4.5 L4.5,4.5 M4.5,-4.5 L-4.5,4.5"></path></g><text x="654" y="418" font-family="system-ui,Segoe UI,Arial,sans-serif" font-size="20" font-weight="500" fill="#F4F4F6">Distribuição de demandas</text><g transform="translate(628,463)" stroke="#52C2E8" stroke-width="2.2" fill="none" stroke-linecap="round"><path d="M0,-7 L0,7 M-7,0 L7,0 M-4.5,-4.5 L4.5,4.5 M4.5,-4.5 L-4.5,4.5"></path></g><text x="654" y="470" font-family="system-ui,Segoe UI,Arial,sans-serif" font-size="20" font-weight="500" fill="#F4F4F6">Carga de trabalho</text><g transform="translate(628,515)" stroke="#52C2E8" stroke-width="2.2" fill="none" stroke-linecap="round"><path d="M0,-7 L0,7 M-7,0 L7,0 M-4.5,-4.5 L4.5,4.5 M4.5,-4.5 L-4.5,4.5"></path></g><text x="654" y="522" font-family="system-ui,Segoe UI,Arial,sans-serif" font-size="20" font-weight="500" fill="#F4F4F6">Tipos de issues</text><g transform="translate(628,567)" stroke="#52C2E8" stroke-width="2.2" fill="none" stroke-linecap="round"><path d="M0,-7 L0,7 M-7,0 L7,0 M-4.5,-4.5 L4.5,4.5 M4.5,-4.5 L-4.5,4.5"></path></g><text x="654" y="574" font-family="system-ui,Segoe UI,Arial,sans-serif" font-size="20" font-weight="500" fill="#F4F4F6">Squads mais solicitantes</text><g transform="translate(628,619)" stroke="#52C2E8" stroke-width="2.2" fill="none" stroke-linecap="round"><path d="M0,-7 L0,7 M-7,0 L7,0 M-4.5,-4.5 L4.5,4.5 M4.5,-4.5 L-4.5,4.5"></path></g><text x="654" y="626" font-family="system-ui,Segoe UI,Arial,sans-serif" font-size="20" font-weight="500" fill="#F4F4F6">Projetos alongados</text><g transform="translate(628,671)" stroke="#52C2E8" stroke-width="2.2" fill="none" stroke-linecap="round"><path d="M0,-7 L0,7 M-7,0 L7,0 M-4.5,-4.5 L4.5,4.5 M4.5,-4.5 L-4.5,4.5"></path></g><text x="654" y="678" font-family="system-ui,Segoe UI,Arial,sans-serif" font-size="20" font-weight="500" fill="#F4F4F6">Gargalos operacionais</text><g transform="translate(628,723)" stroke="#52C2E8" stroke-width="2.2" fill="none" stroke-linecap="round"><path d="M0,-7 L0,7 M-7,0 L7,0 M-4.5,-4.5 L4.5,4.5 M4.5,-4.5 L-4.5,4.5"></path></g><text x="654" y="730" font-family="system-ui,Segoe UI,Arial,sans-serif" font-size="20" font-weight="500" fill="#F4F4F6">Maturidade de UX</text><rect x="1092" y="250" width="442" height="540" rx="18" fill="rgba(255,255,255,0.018)" stroke="rgba(255,255,255,0.08)"></rect><text x="1130" y="308" font-family="system-ui,Segoe UI,Arial,sans-serif" font-size="13" letter-spacing="2.4" font-weight="700" fill="#52C2E8">ETAPA 03</text><text x="1130" y="350" font-family="&#39;Space Grotesk&#39;,system-ui,Segoe UI,Arial,sans-serif" font-size="27" font-weight="600" letter-spacing="-0.6" fill="#F4F4F6">Decisões apoiadas</text><line x1="1130" y1="378" x2="1496" y2="378" stroke="rgba(255,255,255,0.08)"></line><g transform="translate(1142,411)" stroke="#52C2E8" stroke-width="2.6" fill="none" stroke-linecap="round" stroke-linejoin="round"><polyline points="-7,1 -2,6 7,-5"></polyline></g><text x="1168" y="418" font-family="system-ui,Segoe UI,Arial,sans-serif" font-size="20" font-weight="500" fill="#A2A2AC">Feedbacks mais direcionados</text><g transform="translate(1142,463)" stroke="#52C2E8" stroke-width="2.6" fill="none" stroke-linecap="round" stroke-linejoin="round"><polyline points="-7,1 -2,6 7,-5"></polyline></g><text x="1168" y="470" font-family="system-ui,Segoe UI,Arial,sans-serif" font-size="20" font-weight="500" fill="#A2A2AC">Desenvolvimento individual</text><g transform="translate(1142,515)" stroke="#52C2E8" stroke-width="2.6" fill="none" stroke-linecap="round" stroke-linejoin="round"><polyline points="-7,1 -2,6 7,-5"></polyline></g><text x="1168" y="522" font-family="system-ui,Segoe UI,Arial,sans-serif" font-size="20" font-weight="500" fill="#A2A2AC">Priorização</text><g transform="translate(1142,567)" stroke="#52C2E8" stroke-width="2.6" fill="none" stroke-linecap="round" stroke-linejoin="round"><polyline points="-7,1 -2,6 7,-5"></polyline></g><text x="1168" y="574" font-family="system-ui,Segoe UI,Arial,sans-serif" font-size="20" font-weight="500" fill="#A2A2AC">Melhorias de processo</text><g transform="translate(1142,619)" stroke="#52C2E8" stroke-width="2.6" fill="none" stroke-linecap="round" stroke-linejoin="round"><polyline points="-7,1 -2,6 7,-5"></polyline></g><text x="1168" y="626" font-family="system-ui,Segoe UI,Arial,sans-serif" font-size="20" font-weight="500" fill="#A2A2AC">DesignOps</text><g transform="translate(1142,671)" stroke="#52C2E8" stroke-width="2.6" fill="none" stroke-linecap="round" stroke-linejoin="round"><polyline points="-7,1 -2,6 7,-5"></polyline></g><text x="1168" y="678" font-family="system-ui,Segoe UI,Arial,sans-serif" font-size="20" font-weight="500" fill="#A2A2AC">Evolução da qualidade</text><g transform="translate(1142,723)" stroke="#52C2E8" stroke-width="2.6" fill="none" stroke-linecap="round" stroke-linejoin="round"><polyline points="-7,1 -2,6 7,-5"></polyline></g><text x="1168" y="730" font-family="system-ui,Segoe UI,Arial,sans-serif" font-size="20" font-weight="500" fill="#A2A2AC">Direcionamento para o time</text>
  <g transform="translate(542,520)"><circle r="26" fill="#0E0E12" stroke="rgba(255,255,255,0.14)"></circle><g stroke="#52C2E8" stroke-width="2.8" fill="none" stroke-linecap="round" stroke-linejoin="round"><line x1="-11" y1="0" x2="9" y2="0"></line><polyline points="2,-8 11,0 2,8"></polyline></g></g><g transform="translate(1056,520)"><circle r="26" fill="#0E0E12" stroke="rgba(255,255,255,0.14)"></circle><g stroke="#52C2E8" stroke-width="2.8" fill="none" stroke-linecap="round" stroke-linejoin="round"><line x1="-11" y1="0" x2="9" y2="0"></line><polyline points="2,-8 11,0 2,8"></polyline></g></g>
  <text x="64" y="846" font-family="system-ui,Segoe UI,Arial,sans-serif" font-size="15.5" font-weight="500" fill="#7C7C86">A IA amplia a capacidade de observar o sistema e identificar sinais fracos — sem substituir o julgamento da liderança.</text>
</svg>