<svg xmlns="http://www.w3.org/2000/svg" width="1600" height="650" viewBox="0 0 1600 650" role="img">
  <defs>
    <pattern id="h" width="28" height="28" patternUnits="userSpaceOnUse" patternTransform="rotate(135)"><rect width="28" height="28" fill="none"></rect><line x1="0" y1="0" x2="0" y2="28" stroke="rgba(255,255,255,0.02)" stroke-width="14"></line></pattern>
    <linearGradient id="g" x1="0" y1="0" x2="0" y2="1"><stop offset="0" stop-color="#101015"></stop><stop offset="1" stop-color="#0B0B0E"></stop></linearGradient>
  </defs>
  <rect width="1600" height="650" fill="url(#g)"></rect><rect width="1600" height="650" fill="url(#h)"></rect>
  <rect x="1" y="1" width="1598" height="648" fill="none" stroke="rgba(255,255,255,0.12)" stroke-width="2"></rect>
  <g transform="translate(56,46)"><rect width="232" height="42" rx="21" fill="none" stroke="#52C2E8" stroke-opacity="0.5" stroke-width="1.5"></rect><circle cx="26" cy="21" r="4.5" fill="#52C2E8"></circle><text x="44" y="28" font-family="system-ui,Segoe UI,Arial,sans-serif" font-size="16" letter-spacing="2.4" font-weight="600" fill="#52C2E8">ASSET CONCEITUAL</text></g>
  <text x="1544" y="74" text-anchor="end" font-family="system-ui,Segoe UI,Arial,sans-serif" font-size="15" letter-spacing="2.2" font-weight="600" fill="#7C7C86">ANONIMIZADO · RECRIADO</text>
  <text x="64" y="150" font-family="system-ui,Segoe UI,Arial,sans-serif" font-size="14" letter-spacing="2.2" font-weight="700" fill="#52C2E8">PERGUNTA CENTRAL</text>
  <text x="64" y="200" font-family="&#39;Space Grotesk&#39;,system-ui,Segoe UI,Arial,sans-serif" font-size="31" font-weight="600" letter-spacing="-0.5" fill="#F4F4F6">Essa adaptação serve só para um parceiro ou fortalece o</text>
  <text x="64" y="244" font-family="&#39;Space Grotesk&#39;,system-ui,Segoe UI,Arial,sans-serif" font-size="31" font-weight="600" letter-spacing="-0.5" fill="#F4F4F6">produto para outras indústrias, canais e jornadas?</text>
  <line x1="64" y1="290" x2="1536" y2="290" stroke="rgba(255,255,255,0.06)"></line><g transform="translate(110,360)"><g stroke="#52C2E8" stroke-width="3" fill="none" stroke-linecap="round" stroke-linejoin="round"><polyline points="-9,1 -3,7 8,-6"></polyline></g></g><text x="142" y="367" font-family="system-ui,Segoe UI,Arial,sans-serif" font-size="23" font-weight="500" fill="#A2A2AC">Serve para mais de uma indústria?</text><g transform="translate(840,360)"><g stroke="#52C2E8" stroke-width="3" fill="none" stroke-linecap="round" stroke-linejoin="round"><polyline points="-9,1 -3,7 8,-6"></polyline></g></g><text x="872" y="367" font-family="system-ui,Segoe UI,Arial,sans-serif" font-size="23" font-weight="500" fill="#A2A2AC">Preserva o white-label?</text><g transform="translate(110,452)"><g stroke="#52C2E8" stroke-width="3" fill="none" stroke-linecap="round" stroke-linejoin="round"><polyline points="-9,1 -3,7 8,-6"></polyline></g></g><text x="142" y="459" font-family="system-ui,Segoe UI,Arial,sans-serif" font-size="23" font-weight="500" fill="#A2A2AC">Melhora a experiência do pagador?</text><g transform="translate(840,452)"><g stroke="#52C2E8" stroke-width="3" fill="none" stroke-linecap="round" stroke-linejoin="round"><polyline points="-9,1 -3,7 8,-6"></polyline></g></g><text x="872" y="459" font-family="system-ui,Segoe UI,Arial,sans-serif" font-size="23" font-weight="500" fill="#A2A2AC">Impacta intenção de pagamento ou retentativa?</text><g transform="translate(110,544)"><g stroke="#52C2E8" stroke-width="3" fill="none" stroke-linecap="round" stroke-linejoin="round"><polyline points="-9,1 -3,7 8,-6"></polyline></g></g><text x="142" y="551" font-family="system-ui,Segoe UI,Arial,sans-serif" font-size="23" font-weight="500" fill="#A2A2AC">É viável tecnicamente?</text><g transform="translate(840,544)"><g stroke="#52C2E8" stroke-width="3" fill="none" stroke-linecap="round" stroke-linejoin="round"><polyline points="-9,1 -3,7 8,-6"></polyline></g></g><text x="872" y="551" font-family="system-ui,Segoe UI,Arial,sans-serif" font-size="23" font-weight="500" fill="#A2A2AC">Pode ser absorvido pelo Design System?</text>
</svg>