<svg xmlns="http://www.w3.org/2000/svg" width="1600" height="650" viewBox="0 0 1600 650" role="img">
  <defs>
    <pattern id="h" width="28" height="28" patternUnits="userSpaceOnUse" patternTransform="rotate(135)"><rect width="28" height="28" fill="none"></rect><line x1="0" y1="0" x2="0" y2="28" stroke="rgba(255,255,255,0.02)" stroke-width="14"></line></pattern>
    <linearGradient id="g" x1="0" y1="0" x2="0" y2="1"><stop offset="0" stop-color="#101015"></stop><stop offset="1" stop-color="#0B0B0E"></stop></linearGradient>
  </defs>
  <rect width="1600" height="650" fill="url(#g)"></rect><rect width="1600" height="650" fill="url(#h)"></rect>
  <rect x="1" y="1" width="1598" height="648" fill="none" stroke="rgba(255,255,255,0.12)" stroke-width="2"></rect>
  <g transform="translate(56,46)"><rect width="232" height="42" rx="21" fill="none" stroke="#52C2E8" stroke-opacity="0.5" stroke-width="1.5"></rect><circle cx="26" cy="21" r="4.5" fill="#52C2E8"></circle><text x="44" y="28" font-family="system-ui,Segoe UI,Arial,sans-serif" font-size="16" letter-spacing="2.4" font-weight="600" fill="#52C2E8">ASSET CONCEITUAL</text></g>
  <text x="1544" y="74" text-anchor="end" font-family="system-ui,Segoe UI,Arial,sans-serif" font-size="15" letter-spacing="2.2" font-weight="600" fill="#7C7C86">ANONIMIZADO · RECRIADO</text>
  <rect x="310" y="181" width="180" height="58" rx="12" fill="rgba(255,255,255,0.02)" stroke="rgba(255,255,255,0.12)" stroke-opacity="1" stroke-width="1.5"></rect><text x="400" y="218" text-anchor="middle" font-family="&#39;Space Grotesk&#39;,system-ui,Segoe UI,Arial,sans-serif" font-size="19" font-weight="600" fill="#F4F4F6">Figma</text><g transform="translate(520,210)" stroke="#7C7C86" stroke-width="2.4" fill="none" stroke-linecap="round" stroke-linejoin="round"><line x1="-16" y1="0" x2="14" y2="0"></line><polyline points="6,-7 14,0 6,7"></polyline></g><rect x="670" y="181" width="260" height="58" rx="12" fill="rgba(82,194,232,0.08)" stroke="#52C2E8" stroke-opacity="0.6" stroke-width="2"></rect><text x="800" y="218" text-anchor="middle" font-family="&#39;Space Grotesk&#39;,system-ui,Segoe UI,Arial,sans-serif" font-size="22" font-weight="700" fill="#52C2E8">Design System</text><g transform="translate(1080,210)" stroke="#7C7C86" stroke-width="2.4" fill="none" stroke-linecap="round" stroke-linejoin="round"><line x1="-16" y1="0" x2="14" y2="0"></line><polyline points="6,-7 14,0 6,7"></polyline></g><rect x="1110" y="181" width="180" height="58" rx="12" fill="rgba(255,255,255,0.02)" stroke="rgba(255,255,255,0.12)" stroke-opacity="1" stroke-width="1.5"></rect><text x="1200" y="218" text-anchor="middle" font-family="&#39;Space Grotesk&#39;,system-ui,Segoe UI,Arial,sans-serif" font-size="19" font-weight="600" fill="#F4F4F6">Código</text><rect x="365" y="334" width="270" height="52" rx="26" fill="rgba(255,255,255,0.02)" stroke="rgba(255,255,255,0.12)"></rect><text x="500" y="367" text-anchor="middle" font-family="system-ui,Segoe UI,Arial,sans-serif" font-size="20" font-weight="600" fill="#F4F4F6">Tokens</text><rect x="665" y="334" width="270" height="52" rx="26" fill="rgba(255,255,255,0.02)" stroke="rgba(255,255,255,0.12)"></rect><text x="800" y="367" text-anchor="middle" font-family="system-ui,Segoe UI,Arial,sans-serif" font-size="20" font-weight="600" fill="#F4F4F6">Componentes</text><rect x="965" y="334" width="270" height="52" rx="26" fill="rgba(255,255,255,0.02)" stroke="rgba(255,255,255,0.12)"></rect><text x="1100" y="367" text-anchor="middle" font-family="system-ui,Segoe UI,Arial,sans-serif" font-size="20" font-weight="600" fill="#F4F4F6">Documentação</text><rect x="515" y="426" width="270" height="52" rx="26" fill="rgba(255,255,255,0.02)" stroke="rgba(255,255,255,0.12)"></rect><text x="650" y="459" text-anchor="middle" font-family="system-ui,Segoe UI,Arial,sans-serif" font-size="20" font-weight="600" fill="#F4F4F6">Dev Mode</text><rect x="815" y="426" width="270" height="52" rx="26" fill="rgba(255,255,255,0.02)" stroke="rgba(255,255,255,0.12)"></rect><text x="950" y="459" text-anchor="middle" font-family="system-ui,Segoe UI,Arial,sans-serif" font-size="20" font-weight="600" fill="#F4F4F6">Handoff</text><rect x="420" y="518" width="760" height="52" rx="26" fill="rgba(255,255,255,0.02)" stroke="rgba(255,255,255,0.12)"></rect><text x="800" y="551" text-anchor="middle" font-family="system-ui,Segoe UI,Arial,sans-serif" font-size="20" font-weight="600" fill="#F4F4F6">Consistência entre métodos, canais e jornadas</text>
</svg>