<svg xmlns="http://www.w3.org/2000/svg" width="1600" height="650" viewBox="0 0 1600 650" role="img">
  <defs>
    <pattern id="h" width="28" height="28" patternUnits="userSpaceOnUse" patternTransform="rotate(135)"><rect width="28" height="28" fill="none"></rect><line x1="0" y1="0" x2="0" y2="28" stroke="rgba(255,255,255,0.02)" stroke-width="14"></line></pattern>
    <linearGradient id="g" x1="0" y1="0" x2="0" y2="1"><stop offset="0" stop-color="#101015"></stop><stop offset="1" stop-color="#0B0B0E"></stop></linearGradient>
  </defs>
  <rect width="1600" height="650" fill="url(#g)"></rect><rect width="1600" height="650" fill="url(#h)"></rect>
  <rect x="1" y="1" width="1598" height="648" fill="none" stroke="rgba(255,255,255,0.12)" stroke-width="2"></rect>
  <g transform="translate(56,46)"><rect width="232" height="42" rx="21" fill="none" stroke="#52C2E8" stroke-opacity="0.5" stroke-width="1.5"></rect><circle cx="26" cy="21" r="4.5" fill="#52C2E8"></circle><text x="44" y="28" font-family="system-ui,Segoe UI,Arial,sans-serif" font-size="16" letter-spacing="2.4" font-weight="600" fill="#52C2E8">ASSET CONCEITUAL</text></g>
  <text x="1544" y="74" text-anchor="end" font-family="system-ui,Segoe UI,Arial,sans-serif" font-size="15" letter-spacing="2.2" font-weight="600" fill="#7C7C86">ANONIMIZADO · RECRIADO</text>
  <rect x="64" y="132" width="700" height="470" rx="16" fill="rgba(255,255,255,0.018)" stroke="rgba(255,255,255,0.06)"></rect>
      <rect x="100" y="166" width="108" height="38" rx="19" fill="none" stroke="#7C7C86" stroke-opacity="0.55" stroke-width="1.5"></rect>
      <text x="154" y="191" text-anchor="middle" font-family="system-ui,Segoe UI,Arial,sans-serif" font-size="15" letter-spacing="2" font-weight="700" fill="#7C7C86">ANTES</text>
      <g transform="translate(110,250)"><line x1="-9" y1="0" x2="9" y2="0" stroke="#7C7C86" stroke-width="3" stroke-linecap="round"></line></g><text x="140" y="257" font-family="system-ui,Segoe UI,Arial,sans-serif" font-size="23" font-weight="500" fill="#A2A2AC">Erro genérico</text><g transform="translate(110,356.6666666666667)"><line x1="-9" y1="0" x2="9" y2="0" stroke="#7C7C86" stroke-width="3" stroke-linecap="round"></line></g><text x="140" y="363.6666666666667" font-family="system-ui,Segoe UI,Arial,sans-serif" font-size="23" font-weight="500" fill="#A2A2AC">Pix em destaque como segunda opção</text><g transform="translate(110,463.33333333333337)"><line x1="-9" y1="0" x2="9" y2="0" stroke="#7C7C86" stroke-width="3" stroke-linecap="round"></line></g><text x="140" y="470.33333333333337" font-family="system-ui,Segoe UI,Arial,sans-serif" font-size="23" font-weight="500" fill="#A2A2AC">Pouca orientação para retentativa</text><g transform="translate(110,570)"><line x1="-9" y1="0" x2="9" y2="0" stroke="#7C7C86" stroke-width="3" stroke-linecap="round"></line></g><text x="140" y="577" font-family="system-ui,Segoe UI,Arial,sans-serif" font-size="23" font-weight="500" fill="#A2A2AC">Risco de reduzir intenção de pagamento</text><rect x="836" y="132" width="700" height="470" rx="16" fill="rgba(255,255,255,0.018)" stroke="rgba(255,255,255,0.06)"></rect>
      <rect x="872" y="166" width="132" height="38" rx="19" fill="none" stroke="#52C2E8" stroke-opacity="0.55" stroke-width="1.5"></rect>
      <text x="938" y="191" text-anchor="middle" font-family="system-ui,Segoe UI,Arial,sans-serif" font-size="15" letter-spacing="2" font-weight="700" fill="#52C2E8">DEPOIS</text>
      <g transform="translate(882,250)"><g stroke="#52C2E8" stroke-width="3" fill="none" stroke-linecap="round" stroke-linejoin="round"><polyline points="-9,1 -3,7 8,-6"></polyline></g></g><text x="912" y="257" font-family="system-ui,Segoe UI,Arial,sans-serif" font-size="23" font-weight="500" fill="#F4F4F6">Mensagem contextual</text><g transform="translate(882,356.6666666666667)"><g stroke="#52C2E8" stroke-width="3" fill="none" stroke-linecap="round" stroke-linejoin="round"><polyline points="-9,1 -3,7 8,-6"></polyline></g></g><text x="912" y="363.6666666666667" font-family="system-ui,Segoe UI,Arial,sans-serif" font-size="23" font-weight="500" fill="#F4F4F6">Retentativa mais orientada</text><g transform="translate(882,463.33333333333337)"><g stroke="#52C2E8" stroke-width="3" fill="none" stroke-linecap="round" stroke-linejoin="round"><polyline points="-9,1 -3,7 8,-6"></polyline></g></g><text x="912" y="470.33333333333337" font-family="system-ui,Segoe UI,Arial,sans-serif" font-size="23" font-weight="500" fill="#F4F4F6">Fallback alinhado à intenção de pagamento</text><g transform="translate(882,570)"><g stroke="#52C2E8" stroke-width="3" fill="none" stroke-linecap="round" stroke-linejoin="round"><polyline points="-9,1 -3,7 8,-6"></polyline></g></g><text x="912" y="577" font-family="system-ui,Segoe UI,Arial,sans-serif" font-size="23" font-weight="500" fill="#F4F4F6">Cuidado com antifraude e dados sensíveis</text><g transform="translate(800,367)"><circle r="30" fill="#101015" stroke="rgba(255,255,255,0.12)"></circle><g stroke="#52C2E8" stroke-width="3" fill="none" stroke-linecap="round" stroke-linejoin="round"><line x1="-12" y1="0" x2="11" y2="0"></line><polyline points="3,-9 12,0 3,9"></polyline></g></g>
</svg>