<svg xmlns="http://www.w3.org/2000/svg" width="1600" height="880" viewBox="0 0 1600 880" role="img" aria-label="AI-assisted Product Intelligence">
  <defs>
    <pattern id="h" width="28" height="28" patternUnits="userSpaceOnUse" patternTransform="rotate(135)"><rect width="28" height="28" fill="none"></rect><line x1="0" y1="0" x2="0" y2="28" stroke="rgba(255,255,255,0.02)" stroke-width="14"></line></pattern>
    <linearGradient id="g" x1="0" y1="0" x2="0" y2="1"><stop offset="0" stop-color="#101015"></stop><stop offset="1" stop-color="#0B0B0E"></stop></linearGradient>
    <filter id="blur" x="-20%" y="-20%" width="140%" height="140%"><feGaussianBlur stdDeviation="6"></feGaussianBlur></filter>
  </defs>
  <rect width="1600" height="880" fill="url(#g)"></rect><rect width="1600" height="880" fill="url(#h)"></rect>
  <rect x="1" y="1" width="1598" height="878" fill="none" stroke="rgba(255,255,255,0.12)" stroke-width="2"></rect>
  <g transform="translate(56,46)"><rect width="232" height="42" rx="21" fill="none" stroke="#52C2E8" stroke-opacity="0.5" stroke-width="1.5"></rect><circle cx="26" cy="21" r="4.5" fill="#52C2E8"></circle><text x="44" y="28" font-family="system-ui,Segoe UI,Arial,sans-serif" font-size="16" letter-spacing="2.4" font-weight="600" fill="#52C2E8">ASSET CONCEITUAL</text></g>
  <text x="1544" y="74" text-anchor="end" font-family="system-ui,Segoe UI,Arial,sans-serif" font-size="15" letter-spacing="2.2" font-weight="600" fill="#7C7C86">ANONIMIZADO · RECRIADO</text>
  <text x="64" y="160" font-family="system-ui,Segoe UI,Arial,sans-serif" font-size="14" letter-spacing="2.2" font-weight="700" fill="#52C2E8">IA COMO ACELERADOR DA INVESTIGAÇÃO DE PRODUTO</text>
  <text x="64" y="208" font-family="&#39;Space Grotesk&#39;,system-ui,Segoe UI,Arial,sans-serif" font-size="34" font-weight="600" letter-spacing="-0.6" fill="#F4F4F6">AI-assisted Product Intelligence</text>
  <rect x="64" y="250" width="442" height="540" rx="18" fill="rgba(255,255,255,0.018)" stroke="rgba(255,255,255,0.08)"></rect><text x="102" y="308" font-family="system-ui,Segoe UI,Arial,sans-serif" font-size="13" letter-spacing="2.4" font-weight="700" fill="#52C2E8">ETAPA 01</text><text x="102" y="350" font-family="&#39;Space Grotesk&#39;,system-ui,Segoe UI,Arial,sans-serif" font-size="27" font-weight="600" letter-spacing="-0.6" fill="#F4F4F6">Dados de entrada</text><line x1="102" y1="378" x2="468" y2="378" stroke="rgba(255,255,255,0.08)"></line><circle cx="114" cy="413" r="5" fill="none" stroke="#52C2E8" stroke-width="2"></circle><text x="140" y="420" font-family="system-ui,Segoe UI,Arial,sans-serif" font-size="20.5" font-weight="500" fill="#A2A2AC">PostHog</text><circle cx="114" cy="467" r="5" fill="none" stroke="#52C2E8" stroke-width="2"></circle><text x="140" y="474" font-family="system-ui,Segoe UI,Arial,sans-serif" font-size="20.5" font-weight="500" fill="#A2A2AC">Eventos</text><circle cx="114" cy="521" r="5" fill="none" stroke="#52C2E8" stroke-width="2"></circle><text x="140" y="528" font-family="system-ui,Segoe UI,Arial,sans-serif" font-size="20.5" font-weight="500" fill="#A2A2AC">Funis</text><circle cx="114" cy="575" r="5" fill="none" stroke="#52C2E8" stroke-width="2"></circle><text x="140" y="582" font-family="system-ui,Segoe UI,Arial,sans-serif" font-size="20.5" font-weight="500" fill="#A2A2AC">Conversão</text><circle cx="114" cy="629" r="5" fill="none" stroke="#52C2E8" stroke-width="2"></circle><text x="140" y="636" font-family="system-ui,Segoe UI,Arial,sans-serif" font-size="20.5" font-weight="500" fill="#A2A2AC">Erros</text><circle cx="114" cy="683" r="5" fill="none" stroke="#52C2E8" stroke-width="2"></circle><text x="140" y="690" font-family="system-ui,Segoe UI,Arial,sans-serif" font-size="20.5" font-weight="500" fill="#A2A2AC">Performance</text><rect x="578" y="250" width="442" height="540" rx="18" fill="rgba(82,194,232,0.045)" stroke="rgba(82,194,232,0.38)"></rect><g filter="url(#blur)" opacity="0.5"><rect x="598" y="280" width="402" height="482" rx="14" fill="rgba(82,194,232,0.04)"></rect><rect x="622" y="308" width="167" height="56" rx="10" fill="#52C2E8" opacity="0.4"></rect><rect x="809" y="308" width="167" height="56" rx="10" fill="#9884FF" opacity="0.36"></rect><rect x="622" y="400" width="354" height="24" rx="6" fill="#52C2E8" opacity="0.5"></rect><rect x="622" y="440" width="276.12" height="24" rx="6" fill="#52C2E8" opacity="0.5"></rect><rect x="622" y="480" width="212.4" height="24" rx="6" fill="#52C2E8" opacity="0.5"></rect><rect x="622" y="520" width="162.84" height="24" rx="6" fill="#52C2E8" opacity="0.5"></rect><rect x="622" y="560" width="120.36000000000001" height="24" rx="6" fill="#52C2E8" opacity="0.5"></rect><polyline points="626,713 683.6666666666666,690.5 741.3333333333334,704 799,677 856.6666666666666,695 914.3333333333334,668 972,681.5" fill="none" stroke="#9884FF" stroke-width="5" stroke-linecap="round" stroke-linejoin="round" opacity="0.55"></polyline></g><text x="616" y="308" font-family="system-ui,Segoe UI,Arial,sans-serif" font-size="13" letter-spacing="2.4" font-weight="700" fill="#52C2E8">ETAPA 02</text><g transform="translate(982,296)"><rect x="-186" y="0" width="186" height="30" rx="15" fill="none" stroke="#52C2E8" stroke-opacity="0.4"></rect><text x="-93" y="20" text-anchor="middle" font-family="system-ui,Segoe UI,Arial,sans-serif" font-size="11.5" letter-spacing="1.6" font-weight="600" fill="#52C2E8">CLAUDE · POSTHOG</text></g><text x="616" y="350" font-family="&#39;Space Grotesk&#39;,system-ui,Segoe UI,Arial,sans-serif" font-size="27" font-weight="600" letter-spacing="-0.6" fill="#F4F4F6">Exploração com IA</text><line x1="616" y1="378" x2="982" y2="378" stroke="rgba(255,255,255,0.08)"></line><g transform="translate(628,413)" stroke="#52C2E8" stroke-width="2.2" fill="none" stroke-linecap="round"><path d="M0,-7 L0,7 M-7,0 L7,0 M-4.5,-4.5 L4.5,4.5 M4.5,-4.5 L-4.5,4.5"></path></g><text x="654" y="420" font-family="system-ui,Segoe UI,Arial,sans-serif" font-size="20.5" font-weight="500" fill="#F4F4F6">Perguntas</text><g transform="translate(628,467)" stroke="#52C2E8" stroke-width="2.2" fill="none" stroke-linecap="round"><path d="M0,-7 L0,7 M-7,0 L7,0 M-4.5,-4.5 L4.5,4.5 M4.5,-4.5 L-4.5,4.5"></path></g><text x="654" y="474" font-family="system-ui,Segoe UI,Arial,sans-serif" font-size="20.5" font-weight="500" fill="#F4F4F6">Hipóteses</text><g transform="translate(628,521)" stroke="#52C2E8" stroke-width="2.2" fill="none" stroke-linecap="round"><path d="M0,-7 L0,7 M-7,0 L7,0 M-4.5,-4.5 L4.5,4.5 M4.5,-4.5 L-4.5,4.5"></path></g><text x="654" y="528" font-family="system-ui,Segoe UI,Arial,sans-serif" font-size="20.5" font-weight="500" fill="#F4F4F6">Correlações</text><g transform="translate(628,575)" stroke="#52C2E8" stroke-width="2.2" fill="none" stroke-linecap="round"><path d="M0,-7 L0,7 M-7,0 L7,0 M-4.5,-4.5 L4.5,4.5 M4.5,-4.5 L-4.5,4.5"></path></g><text x="654" y="582" font-family="system-ui,Segoe UI,Arial,sans-serif" font-size="20.5" font-weight="500" fill="#F4F4F6">Investigações</text><g transform="translate(628,629)" stroke="#52C2E8" stroke-width="2.2" fill="none" stroke-linecap="round"><path d="M0,-7 L0,7 M-7,0 L7,0 M-4.5,-4.5 L4.5,4.5 M4.5,-4.5 L-4.5,4.5"></path></g><text x="654" y="636" font-family="system-ui,Segoe UI,Arial,sans-serif" font-size="20.5" font-weight="500" fill="#F4F4F6">Síntese</text><rect x="1092" y="250" width="442" height="540" rx="18" fill="rgba(255,255,255,0.018)" stroke="rgba(255,255,255,0.08)"></rect><text x="1130" y="308" font-family="system-ui,Segoe UI,Arial,sans-serif" font-size="13" letter-spacing="2.4" font-weight="700" fill="#52C2E8">ETAPA 03</text><text x="1130" y="350" font-family="&#39;Space Grotesk&#39;,system-ui,Segoe UI,Arial,sans-serif" font-size="27" font-weight="600" letter-spacing="-0.6" fill="#F4F4F6">Resultados</text><line x1="1130" y1="378" x2="1496" y2="378" stroke="rgba(255,255,255,0.08)"></line><g transform="translate(1142,413)" stroke="#52C2E8" stroke-width="2.6" fill="none" stroke-linecap="round" stroke-linejoin="round"><polyline points="-7,1 -2,6 7,-5"></polyline></g><text x="1168" y="420" font-family="system-ui,Segoe UI,Arial,sans-serif" font-size="20.5" font-weight="500" fill="#A2A2AC">Oportunidades de UX</text><g transform="translate(1142,467)" stroke="#52C2E8" stroke-width="2.6" fill="none" stroke-linecap="round" stroke-linejoin="round"><polyline points="-7,1 -2,6 7,-5"></polyline></g><text x="1168" y="474" font-family="system-ui,Segoe UI,Arial,sans-serif" font-size="20.5" font-weight="500" fill="#A2A2AC">Priorização</text><g transform="translate(1142,521)" stroke="#52C2E8" stroke-width="2.6" fill="none" stroke-linecap="round" stroke-linejoin="round"><polyline points="-7,1 -2,6 7,-5"></polyline></g><text x="1168" y="528" font-family="system-ui,Segoe UI,Arial,sans-serif" font-size="20.5" font-weight="500" fill="#A2A2AC">Descobertas de produto</text><g transform="translate(1142,575)" stroke="#52C2E8" stroke-width="2.6" fill="none" stroke-linecap="round" stroke-linejoin="round"><polyline points="-7,1 -2,6 7,-5"></polyline></g><text x="1168" y="582" font-family="system-ui,Segoe UI,Arial,sans-serif" font-size="20.5" font-weight="500" fill="#A2A2AC">Discussões estratégicas</text>
  <g transform="translate(542,520)"><circle r="26" fill="#0E0E12" stroke="rgba(255,255,255,0.14)"></circle><g stroke="#52C2E8" stroke-width="2.8" fill="none" stroke-linecap="round" stroke-linejoin="round"><line x1="-11" y1="0" x2="9" y2="0"></line><polyline points="2,-8 11,0 2,8"></polyline></g></g><g transform="translate(1056,520)"><circle r="26" fill="#0E0E12" stroke="rgba(255,255,255,0.14)"></circle><g stroke="#52C2E8" stroke-width="2.8" fill="none" stroke-linecap="round" stroke-linejoin="round"><line x1="-11" y1="0" x2="9" y2="0"></line><polyline points="2,-8 11,0 2,8"></polyline></g></g>
  <text x="64" y="846" font-family="system-ui,Segoe UI,Arial,sans-serif" font-size="15.5" font-weight="500" fill="#7C7C86">Dados anonimizados de produto investigados com IA — a decisão final permanece humana, embasada em produto, pagamentos e experiência.</text>
</svg>